<svg width="1600" height="900" viewBox="0 0 1600 900" fill="none" xmlns="http://www.w3.org/2000/svg">
  <defs>
    <linearGradient id="bg5" x1="180" y1="100" x2="1400" y2="820" gradientUnits="userSpaceOnUse">
      <stop stop-color="#122744"/>
      <stop offset="1" stop-color="#06101B"/>
    </linearGradient>
    <linearGradient id="bar5" x1="0" y1="0" x2="1" y2="0">
      <stop stop-color="#6EE7FF"/>
      <stop offset="1" stop-color="#8B5CF6"/>
    </linearGradient>
  </defs>
  <rect width="1600" height="900" rx="36" fill="url(#bg5)"/>
  <circle cx="260" cy="170" r="120" fill="#6EE7FF" fill-opacity="0.10"/>
  <circle cx="1350" cy="180" r="150" fill="#8B5CF6" fill-opacity="0.10"/>

  <text x="110" y="120" fill="#6EE7FF" font-size="24" font-family="Arial, sans-serif" letter-spacing="4">WHY NOW</text>
  <text x="110" y="175" fill="#F5F9FF" font-size="54" font-family="Arial, sans-serif" font-weight="700">AI is reaching the front door faster</text>
  <text x="110" y="228" fill="#F5F9FF" font-size="54" font-family="Arial, sans-serif" font-weight="700">than the system behind it</text>

  <text x="160" y="355" fill="#F5F9FF" font-size="28" font-family="Arial, sans-serif" font-weight="700">AI interest</text>
  <rect x="360" y="326" width="980" height="44" rx="22" fill="#102036"/>
  <rect x="360" y="326" width="882" height="44" rx="22" fill="url(#bar5)"/>
  <text x="1270" y="355" fill="#F5F9FF" font-size="24" font-family="Arial, sans-serif">90%</text>

  <text x="160" y="445" fill="#F5F9FF" font-size="28" font-family="Arial, sans-serif" font-weight="700">Booking orchestration</text>
  <rect x="360" y="416" width="980" height="44" rx="22" fill="#102036"/>
  <rect x="360" y="416" width="510" height="44" rx="22" fill="url(#bar5)"/>
  <text x="1270" y="445" fill="#F5F9FF" font-size="24" font-family="Arial, sans-serif">52%</text>

  <text x="160" y="535" fill="#F5F9FF" font-size="28" font-family="Arial, sans-serif" font-weight="700">CRM continuity</text>
  <rect x="360" y="506" width="980" height="44" rx="22" fill="#102036"/>
  <rect x="360" y="506" width="451" height="44" rx="22" fill="url(#bar5)"/>
  <text x="1270" y="535" fill="#F5F9FF" font-size="24" font-family="Arial, sans-serif">46%</text>

  <text x="160" y="625" fill="#F5F9FF" font-size="28" font-family="Arial, sans-serif" font-weight="700">Operator visibility</text>
  <rect x="360" y="596" width="980" height="44" rx="22" fill="#102036"/>
  <rect x="360" y="596" width="480" height="44" rx="22" fill="url(#bar5)"/>
  <text x="1270" y="625" fill="#F5F9FF" font-size="24" font-family="Arial, sans-serif">49%</text>

  <rect x="170" y="720" width="1260" height="100" rx="24" fill="#0D1A2D" stroke="rgba(255,255,255,0.1)"/>
  <text x="220" y="780" fill="#F5F9FF" font-size="30" font-family="Arial, sans-serif" font-weight="700">The market is adopting AI entry points, but the revenue system underneath remains incomplete.</text>
</svg>
