<svg width="1200" height="900" viewBox="0 0 1200 900" xmlns="http://www.w3.org/2000/svg">
  <defs>
    <linearGradient id="bg" x1="0" y1="0" x2="1200" y2="900" gradientUnits="userSpaceOnUse">
      <stop stop-color="#0F172A"/>
      <stop offset="1" stop-color="#1E293B"/>
    </linearGradient>
    <linearGradient id="board" x1="200" y1="220" x2="1000" y2="580" gradientUnits="userSpaceOnUse">
      <stop stop-color="#78350F"/>
      <stop offset="1" stop-color="#451A03"/>
    </linearGradient>
  </defs>
  <rect width="1200" height="900" rx="48" fill="url(#bg)"/>
  <rect x="200" y="220" width="800" height="380" rx="24" fill="url(#board)"/>
  <g opacity="0.92">
    <rect x="240" y="260" width="80" height="80" fill="#FCD34D"/>
    <rect x="400" y="260" width="80" height="80" fill="#FCD34D"/>
    <rect x="560" y="260" width="80" height="80" fill="#FCD34D"/>
    <rect x="720" y="260" width="80" height="80" fill="#FCD34D"/>
    <rect x="880" y="260" width="80" height="80" fill="#FCD34D"/>
    <rect x="320" y="340" width="80" height="80" fill="#FCD34D"/>
    <rect x="480" y="340" width="80" height="80" fill="#FCD34D"/>
    <rect x="640" y="340" width="80" height="80" fill="#FCD34D"/>
    <rect x="800" y="340" width="80" height="80" fill="#FCD34D"/>
    <rect x="240" y="420" width="80" height="80" fill="#FCD34D"/>
    <rect x="400" y="420" width="80" height="80" fill="#FCD34D"/>
    <rect x="560" y="420" width="80" height="80" fill="#FCD34D"/>
    <rect x="720" y="420" width="80" height="80" fill="#FCD34D"/>
    <rect x="880" y="420" width="80" height="80" fill="#FCD34D"/>
  </g>
  <circle cx="380" cy="160" r="60" fill="#FBBF24"/>
  <text x="380" y="200" font-family="Inter, Arial, sans-serif" font-size="20" fill="#FCD34D" text-anchor="middle">Coach</text>
  <circle cx="820" cy="160" r="48" fill="#5EEAD4"/>
  <text x="820" y="200" font-family="Inter, Arial, sans-serif" font-size="20" fill="#5EEAD4" text-anchor="middle">Student</text>
  <text x="80" y="700" font-family="Inter, Arial, sans-serif" font-size="48" font-weight="700" fill="#F8FAFC">In-Person Private 1-1 Coaching - 60 Minutes</text>
  <text x="80" y="752" font-family="Inter, Arial, sans-serif" font-size="28" fill="#FBBF24">A$35 / hour - one student, one grandmaster</text>
  <text x="80" y="800" font-family="Inter, Arial, sans-serif" font-size="22" fill="#93C5FD">Home visit available - personalised tactical and competition coaching</text>
</svg>
