<svg width="1200" height="900" viewBox="0 0 1200 900" xmlns="http://www.w3.org/2000/svg">
  <defs>
    <linearGradient id="bg" x1="0" y1="0" x2="1200" y2="900" gradientUnits="userSpaceOnUse">
      <stop stop-color="#0B1220"/>
      <stop offset="1" stop-color="#1E293B"/>
    </linearGradient>
    <linearGradient id="board" x1="200" y1="220" x2="1000" y2="580" gradientUnits="userSpaceOnUse">
      <stop stop-color="#7C2D12"/>
      <stop offset="1" stop-color="#451A03"/>
    </linearGradient>
  </defs>
  <rect width="1200" height="900" rx="48" fill="url(#bg)"/>
  <rect x="200" y="220" width="800" height="380" rx="24" fill="url(#board)"/>
  <g opacity="0.92">
    <rect x="240" y="260" width="80" height="80" fill="#FCD34D"/>
    <rect x="400" y="260" width="80" height="80" fill="#0B1220"/>
    <rect x="560" y="260" width="80" height="80" fill="#FCD34D"/>
    <rect x="720" y="260" width="80" height="80" fill="#0B1220"/>
    <rect x="880" y="260" width="80" height="80" fill="#FCD34D"/>
    <rect x="320" y="340" width="80" height="80" fill="#0B1220"/>
    <rect x="480" y="340" width="80" height="80" fill="#FCD34D"/>
    <rect x="640" y="340" width="80" height="80" fill="#0B1220"/>
    <rect x="800" y="340" width="80" height="80" fill="#FCD34D"/>
    <rect x="240" y="420" width="80" height="80" fill="#0B1220"/>
    <rect x="400" y="420" width="80" height="80" fill="#FCD34D"/>
    <rect x="560" y="420" width="80" height="80" fill="#0B1220"/>
    <rect x="720" y="420" width="80" height="80" fill="#FCD34D"/>
    <rect x="880" y="420" width="80" height="80" fill="#0B1220"/>
  </g>
  <path d="M540 160 L540 220 M510 190 L570 190" stroke="#FBBF24" stroke-width="10" stroke-linecap="round"/>
  <circle cx="380" cy="160" r="56" fill="#FBBF24"/>
  <text x="380" y="196" font-family="Inter, Arial, sans-serif" font-size="20" fill="#FCD34D" text-anchor="middle">Grandmaster</text>
  <circle cx="820" cy="160" r="44" fill="#5EEAD4"/>
  <text x="820" y="196" font-family="Inter, Arial, sans-serif" font-size="20" fill="#5EEAD4" text-anchor="middle">Tournament student</text>
  <text x="80" y="700" font-family="Inter, Arial, sans-serif" font-size="48" font-weight="700" fill="#F8FAFC">In-Person Private 1-1 Coaching - 90 Minutes</text>
  <text x="80" y="752" font-family="Inter, Arial, sans-serif" font-size="28" fill="#FB7185">A$52.50 / 90 minutes (A$35 / hour) - deep prep</text>
  <text x="80" y="800" font-family="Inter, Arial, sans-serif" font-size="22" fill="#93C5FD">Long over-the-board sessions - opening prep - psychology drills</text>
</svg>
