<svg width="1200" height="900" viewBox="0 0 1200 900" xmlns="http://www.w3.org/2000/svg">
  <defs>
    <linearGradient id="bg" x1="0" y1="0" x2="1200" y2="900" gradientUnits="userSpaceOnUse">
      <stop stop-color="#1F2937"/>
      <stop offset="1" stop-color="#0F172A"/>
    </linearGradient>
    <linearGradient id="board" x1="120" y1="220" x2="1080" y2="600" gradientUnits="userSpaceOnUse">
      <stop stop-color="#92400E"/>
      <stop offset="1" stop-color="#78350F"/>
    </linearGradient>
  </defs>
  <rect width="1200" height="900" rx="48" fill="url(#bg)"/>
  <rect x="120" y="220" width="960" height="380" rx="24" fill="url(#board)"/>
  <g opacity="0.92">
    <rect x="160" y="260" width="80" height="80" fill="#FCD34D"/>
    <rect x="320" y="260" width="80" height="80" fill="#0B1220"/>
    <rect x="480" y="260" width="80" height="80" fill="#FCD34D"/>
    <rect x="640" y="260" width="80" height="80" fill="#0B1220"/>
    <rect x="800" y="260" width="80" height="80" fill="#FCD34D"/>
    <rect x="960" y="260" width="80" height="80" fill="#0B1220"/>
    <rect x="240" y="340" width="80" height="80" fill="#0B1220"/>
    <rect x="400" y="340" width="80" height="80" fill="#FCD34D"/>
    <rect x="560" y="340" width="80" height="80" fill="#0B1220"/>
    <rect x="720" y="340" width="80" height="80" fill="#FCD34D"/>
    <rect x="880" y="340" width="80" height="80" fill="#0B1220"/>
    <rect x="160" y="420" width="80" height="80" fill="#0B1220"/>
    <rect x="320" y="420" width="80" height="80" fill="#FCD34D"/>
    <rect x="480" y="420" width="80" height="80" fill="#0B1220"/>
    <rect x="640" y="420" width="80" height="80" fill="#FCD34D"/>
    <rect x="800" y="420" width="80" height="80" fill="#0B1220"/>
    <rect x="960" y="420" width="80" height="80" fill="#FCD34D"/>
  </g>
  <circle cx="240" cy="160" r="40" fill="#FB7185"/>
  <circle cx="400" cy="160" r="40" fill="#5EEAD4"/>
  <circle cx="560" cy="160" r="40" fill="#A5B4FC"/>
  <circle cx="720" cy="160" r="40" fill="#FBBF24"/>
  <circle cx="880" cy="160" r="40" fill="#34D399"/>
  <text x="80" y="700" font-family="Inter, Arial, sans-serif" font-size="48" font-weight="700" fill="#F8FAFC">In-Person Group Class - 90 Minutes</text>
  <text x="80" y="752" font-family="Inter, Arial, sans-serif" font-size="28" fill="#FBBF24">A$52.50 / 90 minutes (A$35 / hour) / student</text>
  <text x="80" y="800" font-family="Inter, Arial, sans-serif" font-size="22" fill="#93C5FD">Advanced tactical clinic - Sydney venue or student home</text>
</svg>
