<svg width="1200" height="900" viewBox="0 0 1200 900" xmlns="http://www.w3.org/2000/svg">
  <defs>
    <linearGradient id="bg" x1="0" y1="0" x2="1200" y2="900" gradientUnits="userSpaceOnUse">
      <stop stop-color="#111C34"/>
      <stop offset="1" stop-color="#0B1220"/>
    </linearGradient>
  </defs>
  <rect width="1200" height="900" rx="48" fill="url(#bg)"/>
  <rect x="80" y="80" width="1040" height="540" rx="32" fill="#0B1220" stroke="#FB7185" stroke-opacity="0.55" stroke-width="4"/>
  <rect x="120" y="120" width="960" height="56" rx="16" fill="#0E223C"/>
  <circle cx="158" cy="148" r="9" fill="#F87171"/>
  <circle cx="190" cy="148" r="9" fill="#FACC15"/>
  <circle cx="222" cy="148" r="9" fill="#4ADE80"/>
  <text x="270" y="158" font-family="Inter, Arial, sans-serif" font-size="22" fill="#FB7185">private 1-1 deep training - 90 minutes</text>
  <g transform="translate(140 220)">
    <rect width="500" height="380" rx="20" fill="#0F1E33"/>
    <circle cx="250" cy="160" r="80" fill="#FBBF24"/>
    <rect x="140" y="244" width="220" height="56" rx="20" fill="#FCD34D"/>
    <text x="250" y="320" font-family="Inter, Arial, sans-serif" font-size="22" fill="#FCD34D" text-anchor="middle">Coach Mai Hung</text>
    <text x="250" y="350" font-family="Inter, Arial, sans-serif" font-size="20" fill="#93C5FD" text-anchor="middle">Strategic depth + middlegame planning</text>
  </g>
  <g transform="translate(680 220)">
    <rect width="380" height="380" rx="20" fill="#0F1E33"/>
    <text x="190" y="50" font-family="Inter, Arial, sans-serif" font-size="22" fill="#FCD34D" text-anchor="middle">Game review</text>
    <rect x="40" y="80" width="300" height="36" rx="10" fill="#0E223C"/>
    <text x="56" y="106" font-family="Inter, Arial, sans-serif" font-size="16" fill="#5EEAD4">1.e4 c5 2.Nf3 d6 3.d4 cxd4</text>
    <rect x="40" y="124" width="300" height="36" rx="10" fill="#0E223C"/>
    <text x="56" y="150" font-family="Inter, Arial, sans-serif" font-size="16" fill="#5EEAD4">4.Nxd4 Nf6 5.Nc3 a6 ...</text>
    <rect x="40" y="172" width="300" height="100" rx="10" fill="#0E223C"/>
    <text x="56" y="200" font-family="Inter, Arial, sans-serif" font-size="16" fill="#FBBF24">Engine eval: +1.2</text>
    <text x="56" y="226" font-family="Inter, Arial, sans-serif" font-size="14" fill="#93C5FD">Better plan: trade dark-squared bishop, then</text>
    <text x="56" y="246" font-family="Inter, Arial, sans-serif" font-size="14" fill="#93C5FD">push f4-f5 to open the king-side.</text>
    <text x="190" y="320" font-family="Inter, Arial, sans-serif" font-size="20" fill="#5EEAD4" text-anchor="middle">Personalised post-game brief</text>
  </g>
  <text x="80" y="700" font-family="Inter, Arial, sans-serif" font-size="48" font-weight="700" fill="#F8FAFC">Online Private 1-1 Coaching - 90 Minutes</text>
  <text x="80" y="752" font-family="Inter, Arial, sans-serif" font-size="28" fill="#FB7185">A$52.50 / 90 minutes (A$35 / hour) - tournament-level training</text>
  <text x="80" y="800" font-family="Inter, Arial, sans-serif" font-size="22" fill="#93C5FD">Opening prep - engine review - mental routines</text>
</svg>
