<svg width="512" height="128" viewBox="0 0 512 128" fill="none" xmlns="http://www.w3.org/2000/svg">
  <rect width="512" height="128" rx="32" fill="#0B1020"/>
  <g transform="translate(20 20)">
    <rect x="0.75" y="0.75" width="88.5" height="88.5" rx="27.25" fill="url(#panel)" stroke="rgba(255,255,255,0.08)"/>
    <path d="M22 66V24H49.5C61.3741 24 69 29.6881 69 39.5C69 47.1546 64.4495 52.1205 56.75 53.75L71.5 66H56.25L42.75 54.5H35V66H22Z" fill="#F8FAFC"/>
    <path d="M35 35.5V44H48.25C53.1625 44 56 42.4216 56 39.75C56 37.0784 53.1625 35.5 48.25 35.5H35Z" fill="#0B1020"/>
    <path d="M36 35.5V44H48.25C53.1625 44 56 42.4216 56 39.75C56 37.0784 53.1625 35.5 48.25 35.5H36Z" fill="#4F8CFF"/>
    <path d="M34 54H60V66H34V54Z" fill="#F8FAFC"/>
    <path d="M53 69L73 49" stroke="url(#arrow)" stroke-width="8" stroke-linecap="round"/>
    <path d="M62 49H73V60" stroke="url(#arrow)" stroke-width="8" stroke-linecap="round" stroke-linejoin="round"/>
  </g>
  <g transform="translate(128 30)">
    <text x="0" y="34" fill="#F8FAFC" font-size="34" font-weight="700" font-family="Inter, sans-serif" letter-spacing="-0.03em">BookedAI.au</text>
    <text x="0" y="66" fill="#94A3B8" font-size="16" font-weight="600" font-family="Inter, sans-serif" letter-spacing="0.18em">REVENUE ENGINE</text>
  </g>
  <defs>
    <linearGradient id="panel" x1="0" y1="0" x2="90" y2="90" gradientUnits="userSpaceOnUse">
      <stop stop-color="#182235"/>
      <stop offset="1" stop-color="#121A2B"/>
    </linearGradient>
    <linearGradient id="arrow" x1="53" y1="69" x2="73" y2="49" gradientUnits="userSpaceOnUse">
      <stop stop-color="#22C55E"/>
      <stop offset="0.5" stop-color="#8B5CF6"/>
      <stop offset="1" stop-color="#4F8CFF"/>
    </linearGradient>
  </defs>
</svg>
