<svg width="1200" height="900" viewBox="0 0 1200 900" fill="none" xmlns="http://www.w3.org/2000/svg">
  <rect width="1200" height="900" rx="48" fill="#08111F"/>
  <rect x="32" y="32" width="1136" height="836" rx="36" fill="url(#bg)"/>
  <circle cx="222" cy="184" r="112" fill="#1D4ED8" fill-opacity="0.28"/>
  <circle cx="964" cy="172" r="136" fill="#14B8A6" fill-opacity="0.22"/>
  <circle cx="926" cy="702" r="172" fill="#F59E0B" fill-opacity="0.18"/>
  <rect x="140" y="212" width="920" height="500" rx="34" fill="#071426" stroke="#60A5FA" stroke-opacity="0.45" stroke-width="4"/>
  <rect x="182" y="252" width="836" height="48" rx="18" fill="#0E223C"/>
  <circle cx="214" cy="276" r="8" fill="#F97316"/>
  <circle cx="242" cy="276" r="8" fill="#FACC15"/>
  <circle cx="270" cy="276" r="8" fill="#4ADE80"/>
  <rect x="214" y="346" width="372" height="232" rx="28" fill="#0F1E33"/>
  <rect x="622" y="346" width="356" height="110" rx="24" fill="#0D2740"/>
  <rect x="622" y="478" width="356" height="100" rx="24" fill="#0F1E33"/>
  <rect x="214" y="610" width="764" height="48" rx="18" fill="#0E223C"/>
  <path d="M320 520C360 410 442 362 534 352C514 436 458 516 360 552L320 520Z" fill="#38BDF8"/>
  <path d="M320 520L284 568L358 552L320 520Z" fill="#F97316"/>
  <path d="M430 370L462 314L490 374L552 404L490 434L462 494L430 438L370 404L430 370Z" fill="#FACC15"/>
  <path d="M686 384H806" stroke="#93C5FD" stroke-width="18" stroke-linecap="round"/>
  <path d="M686 420H934" stroke="#60A5FA" stroke-width="18" stroke-linecap="round"/>
  <path d="M686 514H904" stroke="#5EEAD4" stroke-width="18" stroke-linecap="round"/>
  <path d="M686 550H842" stroke="#2DD4BF" stroke-width="18" stroke-linecap="round"/>
  <rect x="182" y="744" width="278" height="74" rx="24" fill="#2563EB"/>
  <text x="226" y="790" fill="#E0F2FE" font-family="Arial, Helvetica, sans-serif" font-size="34" font-weight="700">First AI App</text>
  <text x="182" y="146" fill="#E2E8F0" font-family="Arial, Helvetica, sans-serif" font-size="56" font-weight="700">Build an AI idea in one focused hour</text>
  <text x="182" y="190" fill="#93C5FD" font-family="Arial, Helvetica, sans-serif" font-size="28">Fast-launch concept art for the AI Mentor “Your First AI App in 60 Minutes” package</text>
  <defs>
    <linearGradient id="bg" x1="96" y1="80" x2="1110" y2="852" gradientUnits="userSpaceOnUse">
      <stop stop-color="#0F172A"/>
      <stop offset="0.5" stop-color="#111C34"/>
      <stop offset="1" stop-color="#0B1220"/>
    </linearGradient>
  </defs>
</svg>
