<svg width="1200" height="900" viewBox="0 0 1200 900" fill="none" xmlns="http://www.w3.org/2000/svg">
  <rect width="1200" height="900" rx="48" fill="#0B1020"/>
  <rect x="30" y="30" width="1140" height="840" rx="38" fill="url(#bg)"/>
  <circle cx="1010" cy="182" r="150" fill="#F97316" fill-opacity="0.16"/>
  <circle cx="188" cy="692" r="160" fill="#1D4ED8" fill-opacity="0.2"/>
  <text x="138" y="152" fill="#F8FAFC" font-family="Arial, Helvetica, sans-serif" font-size="56" font-weight="700">Turn your AI into a real product</text>
  <text x="138" y="196" fill="#CBD5E1" font-family="Arial, Helvetica, sans-serif" font-size="28">Refactor, monetize, maintain, and scale with a product-minded mentoring track</text>
  <rect x="138" y="246" width="924" height="520" rx="34" fill="#0A1427" stroke="#F59E0B" stroke-opacity="0.35" stroke-width="4"/>
  <rect x="184" y="298" width="330" height="152" rx="26" fill="#0F2740"/>
  <rect x="184" y="476" width="330" height="236" rx="26" fill="#0E1C32"/>
  <rect x="544" y="298" width="474" height="414" rx="28" fill="#101B2F"/>
  <path d="M598 630L686 548L752 584L848 452L934 512" stroke="#F59E0B" stroke-width="20" stroke-linecap="round" stroke-linejoin="round"/>
  <circle cx="598" cy="630" r="18" fill="#FED7AA"/>
  <circle cx="686" cy="548" r="18" fill="#FED7AA"/>
  <circle cx="752" cy="584" r="18" fill="#FED7AA"/>
  <circle cx="848" cy="452" r="18" fill="#FED7AA"/>
  <circle cx="934" cy="512" r="18" fill="#FED7AA"/>
  <rect x="214" y="332" width="110" height="86" rx="20" fill="#1D4ED8"/>
  <rect x="344" y="332" width="140" height="22" rx="11" fill="#93C5FD"/>
  <rect x="344" y="370" width="116" height="18" rx="9" fill="#60A5FA"/>
  <rect x="344" y="402" width="82" height="18" rx="9" fill="#38BDF8"/>
  <rect x="216" y="514" width="268" height="24" rx="12" fill="#94A3B8"/>
  <rect x="216" y="560" width="204" height="24" rx="12" fill="#64748B"/>
  <rect x="216" y="606" width="236" height="24" rx="12" fill="#475569"/>
  <rect x="216" y="652" width="168" height="24" rx="12" fill="#334155"/>
  <rect x="760" y="220" width="250" height="72" rx="24" fill="#EA580C"/>
  <text x="806" y="264" fill="#FFF7ED" font-family="Arial, Helvetica, sans-serif" font-size="34" font-weight="700">Scale Layer</text>
  <rect x="138" y="790" width="344" height="72" rx="22" fill="#1D4ED8"/>
  <text x="178" y="834" fill="#DBEAFE" font-family="Arial, Helvetica, sans-serif" font-size="34" font-weight="700">Product Readiness</text>
  <defs>
    <linearGradient id="bg" x1="88" y1="72" x2="1102" y2="850" gradientUnits="userSpaceOnUse">
      <stop stop-color="#111827"/>
      <stop offset="0.5" stop-color="#151A2F"/>
      <stop offset="1" stop-color="#0B1220"/>
    </linearGradient>
  </defs>
</svg>
