<svg width="1200" height="900" viewBox="0 0 1200 900" fill="none" xmlns="http://www.w3.org/2000/svg">
  <rect width="1200" height="900" rx="48" fill="#07131D"/>
  <rect x="28" y="28" width="1144" height="844" rx="38" fill="url(#bg)"/>
  <circle cx="600" cy="474" r="168" fill="#0F172A" stroke="#22C55E" stroke-width="4"/>
  <circle cx="600" cy="474" r="112" fill="#0B2136" stroke="#5EEAD4" stroke-width="3"/>
  <circle cx="600" cy="474" r="42" fill="#F8FAFC"/>
  <circle cx="600" cy="222" r="58" fill="#1D4ED8"/>
  <circle cx="866" cy="474" r="58" fill="#14B8A6"/>
  <circle cx="600" cy="726" r="58" fill="#F97316"/>
  <circle cx="334" cy="474" r="58" fill="#22C55E"/>
  <path d="M600 280V362" stroke="#93C5FD" stroke-width="12" stroke-linecap="round"/>
  <path d="M808 474H726" stroke="#99F6E4" stroke-width="12" stroke-linecap="round"/>
  <path d="M600 668V586" stroke="#FDBA74" stroke-width="12" stroke-linecap="round"/>
  <path d="M392 474H474" stroke="#86EFAC" stroke-width="12" stroke-linecap="round"/>
  <text x="136" y="148" fill="#F8FAFC" font-family="Arial, Helvetica, sans-serif" font-size="56" font-weight="700">Ongoing mentor and product operations support</text>
  <text x="136" y="192" fill="#BFDBFE" font-family="Arial, Helvetica, sans-serif" font-size="28">A steady operating layer for maintenance, iteration, rollout support, and product follow-through</text>
  <rect x="134" y="250" width="254" height="132" rx="28" fill="#0E2238"/>
  <rect x="812" y="250" width="254" height="132" rx="28" fill="#0E2238"/>
  <rect x="134" y="566" width="254" height="132" rx="28" fill="#0E2238"/>
  <rect x="812" y="566" width="254" height="132" rx="28" fill="#0E2238"/>
  <text x="176" y="324" fill="#93C5FD" font-family="Arial, Helvetica, sans-serif" font-size="28" font-weight="700">Mentor Loop</text>
  <text x="852" y="324" fill="#5EEAD4" font-family="Arial, Helvetica, sans-serif" font-size="28" font-weight="700">Ops Rhythm</text>
  <text x="176" y="640" fill="#86EFAC" font-family="Arial, Helvetica, sans-serif" font-size="28" font-weight="700">Issue Support</text>
  <text x="852" y="640" fill="#FDBA74" font-family="Arial, Helvetica, sans-serif" font-size="28" font-weight="700">Scale Review</text>
  <rect x="136" y="790" width="394" height="72" rx="22" fill="#15803D"/>
  <text x="178" y="834" fill="#ECFDF5" font-family="Arial, Helvetica, sans-serif" font-size="34" font-weight="700">Continuous AI Operations</text>
  <defs>
    <linearGradient id="bg" x1="68" y1="64" x2="1110" y2="846" gradientUnits="userSpaceOnUse">
      <stop stop-color="#08131F"/>
      <stop offset="0.5" stop-color="#0B1724"/>
      <stop offset="1" stop-color="#07131D"/>
    </linearGradient>
  </defs>
</svg>
