<svg xmlns="http://www.w3.org/2000/svg" viewBox="0 0 320 200" width="320" height="200" role="img" aria-labelledby="t">
  <title id="t">Data Fundamentals</title>
  <rect width="320" height="200" rx="18" fill="#fdfaf3"/>
  <rect x="8" y="8" width="304" height="184" rx="14" fill="#f8d99a" opacity="0.4"/>
  <!-- axes -->
  <line x1="40" y1="40" x2="40" y2="155" stroke="#1f2a26" stroke-width="2" stroke-linecap="round"/>
  <line x1="40" y1="155" x2="285" y2="155" stroke="#1f2a26" stroke-width="2" stroke-linecap="round"/>
  <!-- trend line -->
  <path d="M50 140 L 100 120 L 150 100 L 210 70 L 270 50" stroke="#ff6b3d" stroke-width="3" fill="none" stroke-linecap="round"/>
  <!-- scatter points -->
  <g fill="#0f5c54">
    <circle cx="60" cy="135" r="5"/>
    <circle cx="90" cy="125" r="5"/>
    <circle cx="120" cy="115" r="5"/>
    <circle cx="150" cy="100" r="5"/>
    <circle cx="180" cy="92" r="5"/>
    <circle cx="210" cy="74" r="5"/>
    <circle cx="240" cy="68" r="5"/>
    <circle cx="270" cy="52" r="5"/>
    <circle cx="100" cy="140" r="4" opacity="0.5"/>
    <circle cx="170" cy="80" r="4" opacity="0.5"/>
    <circle cx="220" cy="90" r="4" opacity="0.5"/>
    <circle cx="130" cy="130" r="4" opacity="0.5"/>
  </g>
  <text x="20" y="184" font-family="-apple-system, system-ui, sans-serif" font-size="13" font-weight="600" fill="#1f2a26">Data Fundamentals</text>
</svg>
