<svg xmlns="http://www.w3.org/2000/svg" viewBox="0 0 320 200" width="320" height="200" role="img" aria-labelledby="t">
  <title id="t">Prompt Engineering</title>
  <rect width="320" height="200" rx="18" fill="#fdfaf3"/>
  <rect x="8" y="8" width="304" height="184" rx="14" fill="#f8d99a" opacity="0.4"/>
  <!-- quill -->
  <path d="M70 150 C 100 90 160 50 230 40 C 220 90 180 140 130 158 Z" fill="#0f5c54"/>
  <line x1="80" y1="150" x2="200" y2="60" stroke="#fdfaf3" stroke-width="2" opacity="0.5"/>
  <path d="M70 150 L 50 168 L 90 158 Z" fill="#1f2a26"/>
  <line x1="60" y1="160" x2="140" y2="160" stroke="#1f2a26" stroke-width="3" stroke-linecap="round"/>
  <!-- sparkles -->
  <g fill="#ff6b3d">
    <path d="M250 70 L 254 80 L 264 84 L 254 88 L 250 98 L 246 88 L 236 84 L 246 80 Z"/>
    <path d="M270 130 L 273 137 L 280 140 L 273 143 L 270 150 L 267 143 L 260 140 L 267 137 Z"/>
    <path d="M230 130 L 232 135 L 237 137 L 232 139 L 230 144 L 228 139 L 223 137 L 228 135 Z"/>
  </g>
  <text x="20" y="184" font-family="-apple-system, system-ui, sans-serif" font-size="13" font-weight="600" fill="#1f2a26">Prompt Engineering</text>
</svg>
